<svg width="415" height="571" viewBox="0 0 415 571" fill="none" xmlns="http://www.w3.org/2000/svg">
<circle cx="207.5" cy="363.5" r="207.5" fill="url(#paint0_linear_40_76)"/>
<g filter="url(#filter0_d_40_76)">
<path d="M307 391C307 404.001 304.439 416.874 299.464 428.886C294.489 440.897 287.197 451.811 278.004 461.004C268.811 470.197 257.897 477.489 245.886 482.464C233.874 487.439 221.001 490 208 490C194.999 490 182.126 487.439 170.114 482.464C158.103 477.489 147.189 470.197 137.996 461.004C128.803 451.811 121.511 440.897 116.536 428.886C111.561 416.874 109 404.001 109 391L208 391H307Z" fill="#DA9EE6"/>
</g>
<g filter="url(#filter1_d_40_76)">
<path d="M336.593 389.5C343.445 389.5 349.056 395.066 348.456 401.892C347.196 416.227 343.754 430.31 338.229 443.65C331.118 460.817 320.695 476.416 307.556 489.556C294.416 502.695 278.817 513.118 261.65 520.229C244.482 527.34 226.082 531 207.5 531C188.918 531 170.518 527.34 153.35 520.229C136.183 513.118 120.584 502.695 107.444 489.556C94.3049 476.416 83.8821 460.817 76.771 443.65C71.2456 430.31 67.8038 416.227 66.5436 401.892C65.9435 395.066 71.555 389.5 78.4074 389.5V389.5C85.2598 389.5 90.7465 395.07 91.4738 401.884C92.6557 412.957 95.419 423.826 99.6969 434.154C105.561 448.31 114.156 461.174 124.991 472.009C135.826 482.844 148.69 491.439 162.846 497.303C177.003 503.167 192.177 506.185 207.5 506.185C222.823 506.185 237.997 503.167 252.154 497.303C266.31 491.439 279.174 482.844 290.009 472.009C300.844 461.174 309.439 448.31 315.303 434.154C319.581 423.826 322.344 412.957 323.526 401.884C324.253 395.07 329.74 389.5 336.593 389.5V389.5Z" fill="#0D073B"/>
</g>
<circle cx="127.5" cy="249.5" r="25.5" fill="#0D073B"/>
<circle cx="251.5" cy="249.5" r="25.5" fill="#0D073B"/>
<path d="M97.2186 220.796C69.6186 221.684 45.7786 199.545 53.2658 172.965C54.5301 168.477 55.9884 164.038 57.6388 159.66C65.1898 139.631 76.6119 121.285 91.2531 105.669C105.894 90.0544 123.468 77.476 142.97 68.6524C162.472 59.8289 188.766 6.18869 210.16 5.5C231.554 4.81131 247.631 57.0876 267.66 64.6386C287.689 72.1897 306.035 83.6118 321.651 98.2529C337.266 112.894 349.844 130.467 358.668 149.97C360.596 154.232 362.337 158.568 363.887 162.966C373.068 189.009 350.702 212.636 323.102 213.524L210.16 217.16L97.2186 220.796Z" fill="#49BF7C"/>
<g filter="url(#filter2_d_40_76)">
<circle cx="207" cy="329" r="56" fill="#F2B749"/>
</g>
<defs>
<filter id="filter0_d_40_76" x="105" y="391" width="206" height="107" filterUnits="userSpaceOnUse" color-interpolation-filters="sRGB">
<feFlood flood-opacity="0" result="BackgroundImageFix"/>
<feColorMatrix in="SourceAlpha" type="matrix" values="0 0 0 0 0 0 0 0 0 0 0 0 0 0 0 0 0 0 127 0" result="hardAlpha"/>
<feOffset dy="4"/>
<feGaussianBlur stdDeviation="2"/>
<feComposite in2="hardAlpha" operator="out"/>
<feColorMatrix type="matrix" values="0 0 0 0 0 0 0 0 0 0 0 0 0 0 0 0 0 0 0.25 0"/>
<feBlend mode="normal" in2="BackgroundImageFix" result="effect1_dropShadow_40_76"/>
<feBlend mode="normal" in="SourceGraphic" in2="effect1_dropShadow_40_76" result="shape"/>
</filter>
<filter id="filter1_d_40_76" x="62.4995" y="389.5" width="290.001" height="149.5" filterUnits="userSpaceOnUse" color-interpolation-filters="sRGB">
<feFlood flood-opacity="0" result="BackgroundImageFix"/>
<feColorMatrix in="SourceAlpha" type="matrix" values="0 0 0 0 0 0 0 0 0 0 0 0 0 0 0 0 0 0 127 0" result="hardAlpha"/>
<feOffset dy="4"/>
<feGaussianBlur stdDeviation="2"/>
<feComposite in2="hardAlpha" operator="out"/>
<feColorMatrix type="matrix" values="0 0 0 0 0 0 0 0 0 0 0 0 0 0 0 0 0 0 0.25 0"/>
<feBlend mode="normal" in2="BackgroundImageFix" result="effect1_dropShadow_40_76"/>
<feBlend mode="normal" in="SourceGraphic" in2="effect1_dropShadow_40_76" result="shape"/>
</filter>
<filter id="filter2_d_40_76" x="141" y="263" width="140" height="140" filterUnits="userSpaceOnUse" color-interpolation-filters="sRGB">
<feFlood flood-opacity="0" result="BackgroundImageFix"/>
<feColorMatrix in="SourceAlpha" type="matrix" values="0 0 0 0 0 0 0 0 0 0 0 0 0 0 0 0 0 0 127 0" result="hardAlpha"/>
<feMorphology radius="2" operator="dilate" in="SourceAlpha" result="effect1_dropShadow_40_76"/>
<feOffset dx="4" dy="4"/>
<feGaussianBlur stdDeviation="6"/>
<feComposite in2="hardAlpha" operator="out"/>
<feColorMatrix type="matrix" values="0 0 0 0 0 0 0 0 0 0 0 0 0 0 0 0 0 0 0.25 0"/>
<feBlend mode="normal" in2="BackgroundImageFix" result="effect1_dropShadow_40_76"/>
<feBlend mode="normal" in="SourceGraphic" in2="effect1_dropShadow_40_76" result="shape"/>
</filter>
<linearGradient id="paint0_linear_40_76" x1="207.5" y1="156" x2="207.5" y2="571" gradientUnits="userSpaceOnUse">
<stop stop-color="#C189D9"/>
<stop offset="0.950821" stop-color="#C180D2"/>
</linearGradient>
</defs>
</svg>
